HIERARCHY
ROOT Hips
{
	OFFSET 0.00000 0.00000 0.00000
	CHANNELS 6 Xposition Yposition Zposition Zrotation Yrotation Xrotation 
	JOINT LHipJoint
	{
		OFFSET 0 0 0
		CHANNELS 3 Zrotation Yrotation Xrotation
		JOINT LeftUpLeg
		{
			OFFSET 1.51378 -1.89840 0.47569
			CHANNELS 3 Zrotation Yrotation Xrotation
			JOINT LeftLeg
			{
				OFFSET 2.53380 -6.96157 0.00000
				CHANNELS 3 Zrotation Yrotation Xrotation
				JOINT LeftFoot
				{
					OFFSET 2.74874 -7.55212 0.00000
					CHANNELS 3 Zrotation Yrotation Xrotation
					JOINT LeftToeBase
					{
						OFFSET 0.18263 -0.50178 1.99677
						CHANNELS 3 Zrotation Yrotation Xrotation
						End Site
						{
							OFFSET 0.00000 -0.00000 1.03711
						}
					}
				}
			}
		}
	}
	JOINT RHipJoint
	{
		OFFSET 0 0 0
		CHANNELS 3 Zrotation Yrotation Xrotation
		JOINT RightUpLeg
		{
			OFFSET -1.43037 -1.89840 0.47569
			CHANNELS 3 Zrotation Yrotation Xrotation
			JOINT RightLeg
			{
				OFFSET -2.69849 -7.41406 0.00000
				CHANNELS 3 Zrotation Yrotation Xrotation
				JOINT RightFoot
				{
					OFFSET -2.69369 -7.40087 0.00000
					CHANNELS 3 Zrotation Yrotation Xrotation
					JOINT RightToeBase
					{
						OFFSET -0.28932 -0.79491 2.04975
						CHANNELS 3 Zrotation Yrotation Xrotation
						End Site
						{
							OFFSET 0.00009 0.00010 1.09536
						}
					}
				}
			}
		}
	}
	JOINT LowerBack
	{
		OFFSET 0 0 0
		CHANNELS 3 Zrotation Yrotation Xrotation
		JOINT Spine
		{
			OFFSET 0.01912 1.94784 -0.02419
			CHANNELS 3 Zrotation Yrotation Xrotation
			JOINT Spine1
			{
				OFFSET 0.07565 1.94258 0.01909
				CHANNELS 3 Zrotation Yrotation Xrotation
				JOINT Neck
				{
					OFFSET 0 0 0
					CHANNELS 3 Zrotation Yrotation Xrotation
					JOINT Neck1
					{
						OFFSET -0.07010 1.86195 0.18976
						CHANNELS 3 Zrotation Yrotation Xrotation
						JOINT Head
						{
							OFFSET 0.02284 1.86595 -0.31497
							CHANNELS 3 Zrotation Yrotation Xrotation
							End Site
							{
								OFFSET 0.01200 1.90122 -0.12838
							}
						}
					}
				}
				JOINT LeftShoulder
				{
					OFFSET 0 0 0
					CHANNELS 3 Zrotation Yrotation Xrotation
					JOINT LeftArm
					{
						OFFSET 3.39189 0.96331 -0.10437
						CHANNELS 3 Zrotation Yrotation Xrotation
						JOINT LeftForeArm
						{
							OFFSET 5.14845 -0.00000 0.00000
							CHANNELS 3 Zrotation Yrotation Xrotation
							JOINT LeftHand
							{
								OFFSET 3.43674 -0.00000 -0.00000
								CHANNELS 3 Zrotation Yrotation Xrotation
								JOINT LeftFingerBase
								{
									OFFSET 0 0 0
									CHANNELS 3 Zrotation Yrotation Xrotation
									JOINT LeftHandIndex1
									{
										OFFSET 0.58871 -0.00000 0.00000
										CHANNELS 3 Zrotation Yrotation Xrotation
										End Site
										{
											OFFSET 0.47463 -0.00000 0.00000
										}
									}
								}
								JOINT LThumb
								{
									OFFSET 0 0 0
									CHANNELS 3 Zrotation Yrotation Xrotation
									End Site
									{
										OFFSET 0.48188 -0.00000 0.48188
									}
								}
							}
						}
					}
				}
				JOINT RightShoulder
				{
					OFFSET 0 0 0
					CHANNELS 3 Zrotation Yrotation Xrotation
					JOINT RightArm
					{
						OFFSET -3.34934 1.18831 -0.19928
						CHANNELS 3 Zrotation Yrotation Xrotation
						JOINT RightForeArm
						{
							OFFSET -5.42185 -0.00000 0.00000
							CHANNELS 3 Zrotation Yrotation Xrotation
							JOINT RightHand
							{
								OFFSET -3.51317 -0.00000 -0.00000
								CHANNELS 3 Zrotation Yrotation Xrotation
								JOINT RightFingerBase
								{
									OFFSET 0 0 0
									CHANNELS 3 Zrotation Yrotation Xrotation
									JOINT RightHandIndex1
									{
										OFFSET -0.66319 -0.00000 0.00000
										CHANNELS 3 Zrotation Yrotation Xrotation
										End Site
										{
											OFFSET -0.53468 -0.00000 0.00000
										}
									}
								}
								JOINT RThumb
								{
									OFFSET 0 0 0
									CHANNELS 3 Zrotation Yrotation Xrotation
									End Site
									{
										OFFSET -0.54284 -0.00000 0.54284
									}
								}
							}
						}
					}
				}
			}
		}
	}
}
MOTION
Frames: 8
Frame Time: 0.0512821
0.00 0.00 0.00 -1.0598 -6.5384 5.8244 0.0000 0.0000 0.0000 -24.2526 -14.6945 -10.9033 4.9809 13.3622 40.7400 0.5701 -15.6572 -16.2841 0.0152 -0.7969 -2.1901 0.0000 0.0000 0.0000 10.5408 13.2464 -43.1182 -5.3914 -13.8114 42.4873 -0.3386 -2.6866 -12.3116 -2.3567 9.5725 -27.6032 1.9680 6.8015 2.6129 1.4205 9.0602 3.2688 0.3043 4.5496 1.9854 0.5261 19.9847 -3.4775 -12.3063 32.2286 26.7338 -0.4847 13.8567 11.7190 0.0000 -0.0000 0.0000 -94.8055 13.5505 19.4858 14.5360 -23.4958 -3.0385 -0.0000 -0.0000 0.7925 11.3265 24.9753 4.8341 -7.1250 0.0000 -0.0000 -19.2094 54.3440 -4.5377 0.0000 -0.0000 0.0000 71.9195 18.3661 14.0943 -27.3715 38.5312 -9.7297 0.0000 -0.0000 -10.3794 -26.5637 11.3153 -5.6027 7.1250 -0.0000 -0.0000 0.3985 -17.3698 0.2614
0.00 0.00 0.00 -1.7478 -19.2955 6.3197 0.0000 0.0000 0.0000 -22.3838 -13.4389 -24.7863 3.7276 11.7888 34.9891 -0.3695 -12.9063 -2.9779 0.3739 -3.9275 -10.8729 0.0000 0.0000 0.0000 22.9364 3.4828 -12.9827 -11.1303 -17.9983 63.2041 -0.2930 2.2426 -9.6933 -0.6737 5.2487 -14.6194 1.2290 5.0784 1.2673 2.1831 6.7339 2.4235 1.5624 3.3621 1.6595 1.5538 19.9810 -3.4506 -11.8448 31.5617 26.3428 -0.5763 13.6386 11.5509 -0.0000 0.0000 0.0000 -85.9494 4.8806 15.1856 20.0293 -30.6776 -5.5463 -0.0000 0.0000 -6.8469 18.2971 27.6050 8.7111 -7.1250 0.0000 -0.0000 -13.5864 58.3043 -4.4750 -0.0000 0.0000 0.0000 81.8017 -2.7621 21.3772 -24.7229 35.9194 -8.1268 0.0000 -0.0000 -9.0753 -28.8473 9.9391 -5.4310 7.1250 -0.0000 -0.0000 -1.3044 -18.6684 -0.8185
0.00 0.00 0.00 0.4849 -21.8274 8.7063 0.0000 0.0000 0.0000 -21.9040 -13.3657 -35.3543 1.7609 8.3492 23.7798 -0.5436 -15.2819 14.3736 0.0512 1.4606 4.0172 0.0000 0.0000 0.0000 26.7034 6.1294 -2.7218 -4.5429 -12.8498 38.8089 -1.1492 2.2067 -19.6501 -1.1542 6.8212 -19.1868 0.8301 4.2536 2.4702 1.0661 5.6627 2.3436 0.5407 2.8292 0.9964 0.8141 19.8914 -4.0830 -12.9104 31.5865 25.7053 -0.7727 13.4741 11.5208 -0.0000 -0.0000 0.0000 -79.4357 -7.4464 17.0307 29.4443 -40.4123 -11.0476 -0.0000 0.0000 -11.6589 19.8850 26.8607 9.2815 -7.1250 0.0000 -0.0000 -11.4752 57.9163 -3.6592 -0.0000 -0.0000 0.0000 88.5893 -10.3757 15.6188 -19.0026 29.4219 -5.0321 0.0000 -0.0000 -8.9768 -28.9595 10.1403 -5.5647 7.1250 -0.0000 -0.0000 -1.3679 -18.4289 -0.8656
0.00 0.00 0.00 0.2463 -64.8421 13.4787 0.0000 0.0000 0.0000 -12.1832 -21.8196 -40.9778 2.2254 9.3206 26.8035 -0.7752 -18.1469 -3.6448 3.8910 -12.0140 -35.7814 0.0000 0.0000 0.0000 27.9270 8.0712 -11.9173 -4.0050 -12.1670 36.3254 -2.3625 -3.8745 -30.6166 -0.0403 1.2956 -3.5624 2.0048 3.4644 3.2546 1.9786 4.6308 2.0347 0.7715 2.3051 0.2634 0.1902 15.5991 -5.6175 -12.8634 25.5385 29.8851 -1.4750 9.9585 12.8614 -0.0000 -0.0000 0.0000 -85.9729 -10.2079 17.1355 31.5310 -42.1701 -12.4248 -0.0000 0.0000 -15.0674 18.7521 26.3020 8.5549 -7.1250 0.0000 -0.0000 -12.3810 57.1125 -3.7127 -0.0000 -0.0000 0.0000 89.8371 -6.7675 16.8552 -18.6611 28.9954 -4.8655 0.0000 -0.0000 -8.4418 -28.7414 10.2402 -5.5685 7.1250 -0.0000 -0.0000 -1.2065 -18.3392 -0.7658
0.00 0.00 0.00 -20.7566 -79.8538 33.5422 0.0000 0.0000 0.0000 -12.9060 -11.8106 -31.9218 9.5739 17.1632 58.0544 1.2108 -0.6483 -20.6039 0.9490 -6.2039 -17.3773 0.0000 0.0000 0.0000 28.8729 11.5388 -22.3968 -4.5472 -12.8549 38.8279 -2.6009 0.2706 -30.4919 -0.0460 -1.3842 3.8065 1.1974 1.0395 2.4670 4.2866 1.3694 0.9370 3.6981 0.6511 -0.4981 -3.5041 1.7094 -14.3375 -6.6112 4.7257 27.6718 -1.2196 0.7194 11.5201 0.0000 0.0000 0.0000 -90.7330 -3.4264 16.5739 26.8743 -38.0591 -9.4215 -0.0000 0.0000 -13.9485 19.9524 25.4012 8.8512 -7.1250 0.0000 -0.0000 -10.6663 56.4629 -3.0218 0.0000 0.0000 0.0000 90.4012 -9.5230 16.2696 -17.5606 27.5909 -4.3438 0.0000 -0.0000 -7.0521 -28.6519 10.9700 -5.9360 7.1250 -0.0000 -0.0000 -1.0859 -17.5255 -0.7086
0.00 0.00 0.00 -4.7139 -14.3426 12.7660 0.0000 0.0000 0.0000 -9.7902 -13.2243 -28.7020 0.1983 2.8678 7.9110 -0.0509 4.6568 -4.2387 0.0398 -1.2878 -3.5410 0.0000 0.0000 0.0000 24.8171 -0.9324 -9.5259 -2.9753 -10.6549 31.1247 0.1556 -16.7542 -22.2409 -1.8005 8.4375 -24.0510 2.7133 0.1177 2.4515 4.3910 0.2047 1.4129 2.9867 0.0946 0.0698 -3.5652 -0.0161 -13.3600 -5.2279 2.3580 28.4977 -1.0011 -0.0051 11.5571 0.0000 -0.0000 0.0000 -92.4492 -2.8348 21.7497 32.5877 -43.0108 -13.1400 -0.0000 0.0000 -15.9724 20.8974 27.5941 10.0294 -7.1250 0.0000 -0.0000 -10.7790 58.8799 -3.6838 0.0000 -0.0000 0.0000 85.9324 -11.4228 14.3696 -17.3844 27.3617 -4.2625 0.0000 0.0000 1.3490 -28.1136 13.4564 -7.0869 7.1250 -0.0000 -0.0000 -0.5025 -14.8022 -0.3575
0.00 0.00 0.00 -1.3074 -7.6678 10.6377 0.0000 0.0000 0.0000 -15.9837 -11.7873 -30.2229 1.1754 6.8813 19.3641 0.0129 -2.3314 -2.4316 0.0205 -0.9233 -2.5378 0.0000 0.0000 0.0000 22.2719 -3.9321 -7.1017 -4.9177 -13.2905 40.4659 1.8016 -23.2062 -12.7864 -0.9941 6.3453 -17.7897 0.0415 0.3128 2.3216 2.9561 0.4180 1.3976 3.0019 0.1970 0.1094 -4.6000 -1.5999 -12.6891 -3.3481 -0.1652 29.1033 -0.4723 -1.0063 11.6234 0.0000 -0.0000 0.0000 -93.8714 3.1092 16.4430 23.7110 -34.8571 -7.5407 -0.0000 0.0000 -8.7272 20.4047 26.8238 9.5288 -7.1250 0.0000 -0.0000 -10.8985 57.9940 -3.4928 0.0000 -0.0000 0.0000 86.5898 -7.5143 11.9211 -18.8176 29.1915 -4.9416 0.0000 -0.0000 -1.9601 -29.6290 13.2351 -7.4189 7.1250 -0.0000 -0.0000 -1.5556 -14.8435 -1.1056
0.00 0.00 0.00 0.5567 -6.4134 9.1402 0.0000 0.0000 0.0000 -19.8850 -9.7401 -27.9540 1.8350 8.5137 24.2855 0.1157 -4.2969 -6.3241 0.1269 -2.2963 -6.3251 0.0000 0.0000 0.0000 20.1148 -0.9824 -13.1110 -8.7753 -16.6609 55.3098 3.5849 -32.0616 -5.0570 -1.5965 -7.9696 22.6218 -1.9815 0.4692 3.0291 2.4490 0.5833 1.3386 3.6115 0.2790 -0.3694 -4.8619 -2.2390 -12.5395 -2.0711 -1.3942 29.3280 -0.1218 -1.4282 11.6929 -0.0000 -0.0000 0.0000 -94.5737 7.4400 15.2736 20.0064 -30.6500 -5.5346 -0.0000 0.0000 -6.8927 19.8740 27.6097 9.5103 -7.1250 0.0000 -0.0000 -11.8980 58.6625 -4.0106 -0.0000 -0.0000 0.0000 86.6341 -6.1595 11.7714 -20.6783 31.4509 -5.8812 0.0000 -0.0000 -4.3305 -29.2357 12.4738 -6.8931 7.1250 -0.0000 -0.0000 -1.3598 -15.7572 -0.9397
